<svg width="320" height="540" viewBox="0 0 320 540" fill="none" xmlns="http://www.w3.org/2000/svg">
<g clip-path="url(#clip0)">
<path d="M270.67 5.43033e-05L221.765 28.2354L270.67 56.4706L319.575 28.2354L270.67 5.43033e-05Z" fill="#716E6A"/>
<path d="M319.493 28.2354L270.588 56.4707L270.588 112.941L319.493 84.706L319.493 28.2354Z" fill="white"/>
<path d="M270.67 56.4706L221.765 28.2354L221.765 84.7059L270.67 112.941L270.67 56.4706Z" fill="#80C4A8"/>
<path d="M227.14 137.059L178.235 165.294L227.14 193.529L276.045 165.294L227.14 137.059Z" fill="#716E6A"/>
<path d="M275.964 165.294L227.059 193.529L227.059 250L275.964 221.765L275.964 165.294Z" fill="white"/>
<path d="M227.14 193.529L178.235 165.294L178.235 221.765L227.14 250L227.14 193.529Z" fill="#80C4A8"/>
<path d="M48.9049 426.471L0 454.706L48.9049 482.941L97.8099 454.706L48.9049 426.471Z" fill="#716E6A"/>
<path d="M97.7284 454.706L48.8235 482.941L48.8235 539.412L97.7284 511.177L97.7284 454.706Z" fill="white"/>
<path d="M48.9049 482.941L0 454.706L-1.24407e-06 511.177L48.9049 539.412L48.9049 482.941Z" fill="#80C4A8"/>
<path d="M97.7284 341.765L48.8235 370L97.7284 398.235L146.633 370L97.7284 341.765Z" fill="#716E6A"/>
<path d="M146.552 370L97.6472 398.235L97.6472 454.706L146.552 426.471L146.552 370Z" fill="white"/>
<path d="M97.7284 398.235L48.8235 370L48.8235 426.471L97.7284 454.706L97.7284 398.235Z" fill="#80C4A8"/>
<path d="M146.552 426.471L97.6472 454.706L97.6472 511.177L146.552 482.941L146.552 426.471Z" fill="white"/>
<path d="M146.552 313.529L97.6472 341.765L146.552 370L195.457 341.765L146.552 313.529Z" fill="#716E6A"/>
<path d="M195.376 341.765L146.471 370L146.471 426.471L195.376 398.235L195.376 341.765Z" fill="white"/>
<path d="M195.376 398.235L146.471 426.471L146.471 482.941L195.376 454.706L195.376 398.235Z" fill="white"/>
<path d="M195.376 285.294L146.471 313.529L195.376 341.765L244.281 313.529L195.376 285.294Z" fill="#716E6A"/>
<path d="M244.199 313.529L195.294 341.765L195.294 398.235L244.199 370L244.199 313.529Z" fill="white"/>
<path d="M146.552 257.059L97.6472 285.294L146.552 313.529L195.457 285.294L146.552 257.059Z" fill="#716E6A"/>
<path d="M195.376 285.294L146.471 313.529L146.471 370L195.376 341.765L195.376 285.294Z" fill="white"/>
<path d="M146.552 313.529L97.6472 285.294L97.6472 341.765L146.552 370L146.552 313.529Z" fill="#80C4A8"/>
<path d="M244.199 370L195.294 398.235L195.294 454.706L244.199 426.471L244.199 370Z" fill="white"/>
</g>
<defs>
<clipPath id="clip0">
<rect width="320" height="539.412" fill="white"/>
</clipPath>
</defs>
</svg>
