<svg width="320" height="283" viewBox="0 0 320 283" fill="none" xmlns="http://www.w3.org/2000/svg">
<path d="M48.9049 169.471L0 197.706L48.9049 225.941L97.8099 197.706L48.9049 169.471Z" fill="#716E6A"/>
<path d="M97.7284 197.706L48.8235 225.941L48.8235 282.412L97.7284 254.177L97.7284 197.706Z" fill="white"/>
<path d="M48.9049 225.941L0 197.706L-1.24407e-06 254.177L48.9049 282.412L48.9049 225.941Z" fill="#80C4A8"/>
<path d="M97.7284 84.7647L48.8235 113L97.7284 141.235L146.633 113L97.7284 84.7647Z" fill="#716E6A"/>
<path d="M146.552 113L97.6472 141.235L97.6472 197.706L146.552 169.471L146.552 113Z" fill="white"/>
<path d="M97.7284 141.235L48.8235 113L48.8235 169.471L97.7284 197.706L97.7284 141.235Z" fill="#80C4A8"/>
<path d="M146.552 169.471L97.6472 197.706L97.6472 254.177L146.552 225.941L146.552 169.471Z" fill="white"/>
<path d="M195.376 84.7647L146.471 113L146.471 169.471L195.376 141.235L195.376 84.7647Z" fill="white"/>
<path d="M195.376 141.235L146.471 169.471L146.471 225.941L195.376 197.706L195.376 141.235Z" fill="white"/>
<path d="M195.376 28.294L146.471 56.5293L195.376 84.7646L244.281 56.5293L195.376 28.294Z" fill="#716E6A"/>
<path d="M244.199 56.5294L195.294 84.7646L195.294 141.235L244.199 113L244.199 56.5294Z" fill="white"/>
<path d="M146.552 0.0586534L97.6472 28.2939L146.552 56.5292L195.457 28.2939L146.552 0.0586534Z" fill="#716E6A"/>
<path d="M195.376 28.294L146.471 56.5293L146.471 113L195.376 84.7646L195.376 28.294Z" fill="white"/>
<path d="M146.552 56.5292L97.6472 28.2939L97.6472 84.7645L146.552 113L146.552 56.5292Z" fill="#80C4A8"/>
<path d="M244.199 113L195.294 141.235L195.294 197.706L244.199 169.471L244.199 113Z" fill="white"/>
</svg>
