<svg width="159" height="33" viewBox="0 0 159 33" fill="none" xmlns="http://www.w3.org/2000/svg">
<path d="M39.554 32H36.679V16.82H39.554V32ZM48.6523 20.385C49.9556 20.385 50.9906 20.8067 51.7573 21.65C52.524 22.478 52.9073 23.5743 52.9073 24.939V32H50.0553V25.33C50.0553 24.6247 49.8483 24.0573 49.4343 23.628C49.0356 23.1987 48.499 22.984 47.8243 22.984C47.1496 22.984 46.5976 23.2063 46.1683 23.651C45.739 24.0803 45.5243 24.64 45.5243 25.33V32H42.6493V20.661H45.2943V21.696C45.693 21.282 46.176 20.96 46.7433 20.73C47.326 20.5 47.9623 20.385 48.6523 20.385ZM61.8144 20.385C63.1177 20.385 64.1527 20.8067 64.9194 21.65C65.6861 22.478 66.0694 23.5743 66.0694 24.939V32H63.2174V25.33C63.2174 24.6247 63.0104 24.0573 62.5964 23.628C62.1977 23.1987 61.6611 22.984 60.9864 22.984C60.3117 22.984 59.7597 23.2063 59.3304 23.651C58.9011 24.0803 58.6864 24.64 58.6864 25.33V32H55.8114V20.661H58.4564V21.696C58.8551 21.282 59.3381 20.96 59.9054 20.73C60.4881 20.5 61.1244 20.385 61.8144 20.385ZM74.3555 32.253C73.2515 32.253 72.2318 31.9923 71.2965 31.471C70.3765 30.9497 69.6482 30.2367 69.1115 29.332C68.5748 28.4273 68.3065 27.423 68.3065 26.319C68.3065 25.215 68.5748 24.2107 69.1115 23.306C69.6482 22.4013 70.3765 21.6883 71.2965 21.167C72.2165 20.6457 73.2362 20.385 74.3555 20.385C75.4595 20.385 76.4715 20.6457 77.3915 21.167C78.3268 21.6883 79.0628 22.4013 79.5995 23.306C80.1515 24.2107 80.4275 25.215 80.4275 26.319C80.4275 27.4077 80.1515 28.4043 79.5995 29.309C79.0628 30.2137 78.3268 30.9343 77.3915 31.471C76.4715 31.9923 75.4595 32.253 74.3555 32.253ZM74.3555 29.608C75.2448 29.608 75.9885 29.3013 76.5865 28.688C77.1845 28.0593 77.4835 27.2773 77.4835 26.342C77.4835 25.3913 77.1845 24.6017 76.5865 23.973C76.0038 23.329 75.2678 23.007 74.3785 23.007C73.4585 23.007 72.6995 23.3213 72.1015 23.95C71.5188 24.5787 71.2275 25.376 71.2275 26.342C71.2275 27.2927 71.5188 28.0747 72.1015 28.688C72.6995 29.3013 73.4508 29.608 74.3555 29.608ZM93.1259 20.661L88.0429 32.138H86.1339L81.0049 20.661H84.0409L87.0769 28.113L90.0899 20.661H93.1259ZM105.624 20.661V32H102.933V30.597C102.519 31.1337 101.99 31.5477 101.346 31.839C100.702 32.115 99.9965 32.253 99.2298 32.253C98.1718 32.253 97.2212 32 96.3778 31.494C95.5498 30.9727 94.8982 30.2673 94.4228 29.378C93.9475 28.4733 93.7098 27.4613 93.7098 26.342C93.7098 25.2227 93.9475 24.2107 94.4228 23.306C94.8982 22.4013 95.5498 21.6883 96.3778 21.167C97.2212 20.6457 98.1718 20.385 99.2298 20.385C100.027 20.385 100.756 20.5383 101.415 20.845C102.074 21.1517 102.603 21.581 103.002 22.133V20.661H105.624ZM99.7358 29.654C100.579 29.654 101.3 29.3703 101.898 28.803C102.511 28.2357 102.818 27.4153 102.818 26.342C102.818 25.2533 102.511 24.4253 101.898 23.858C101.3 23.2907 100.579 23.007 99.7358 23.007C98.8618 23.007 98.1258 23.3137 97.5278 23.927C96.9298 24.5403 96.6308 25.3453 96.6308 26.342C96.6308 27.3233 96.9298 28.1207 97.5278 28.734C98.1258 29.3473 98.8618 29.654 99.7358 29.654ZM112.113 23.099V27.86C112.113 28.504 112.281 28.9717 112.619 29.263C112.956 29.539 113.508 29.677 114.275 29.677C114.612 29.677 114.972 29.6463 115.356 29.585V32C114.788 32.1687 114.221 32.253 113.654 32.253C112.228 32.253 111.131 31.9003 110.365 31.195C109.613 30.4897 109.238 29.4623 109.238 28.113V23.099H107.421V20.661H109.238V17.74H112.113V20.661H115.517V23.099H112.113ZM120.476 32H117.601V20.661H120.476V32ZM119.05 15.256C119.556 15.256 119.993 15.4323 120.361 15.785C120.729 16.1377 120.913 16.567 120.913 17.073C120.913 17.579 120.729 18.0083 120.361 18.361C119.993 18.7137 119.556 18.89 119.05 18.89C118.529 18.89 118.084 18.7137 117.716 18.361C117.348 18.0083 117.164 17.579 117.164 17.073C117.164 16.567 117.348 16.1377 117.716 15.785C118.084 15.4323 118.529 15.256 119.05 15.256ZM128.846 32.253C127.742 32.253 126.722 31.9923 125.787 31.471C124.867 30.9497 124.138 30.2367 123.602 29.332C123.065 28.4273 122.797 27.423 122.797 26.319C122.797 25.215 123.065 24.2107 123.602 23.306C124.138 22.4013 124.867 21.6883 125.787 21.167C126.707 20.6457 127.726 20.385 128.846 20.385C129.95 20.385 130.962 20.6457 131.882 21.167C132.817 21.6883 133.553 22.4013 134.09 23.306C134.642 24.2107 134.918 25.215 134.918 26.319C134.918 27.4077 134.642 28.4043 134.09 29.309C133.553 30.2137 132.817 30.9343 131.882 31.471C130.962 31.9923 129.95 32.253 128.846 32.253ZM128.846 29.608C129.735 29.608 130.479 29.3013 131.077 28.688C131.675 28.0593 131.974 27.2773 131.974 26.342C131.974 25.3913 131.675 24.6017 131.077 23.973C130.494 23.329 129.758 23.007 128.869 23.007C127.949 23.007 127.19 23.3213 126.592 23.95C126.009 24.5787 125.718 25.376 125.718 26.342C125.718 27.2927 126.009 28.0747 126.592 28.688C127.19 29.3013 127.941 29.608 128.846 29.608ZM143.235 20.385C144.539 20.385 145.574 20.8067 146.34 21.65C147.107 22.478 147.49 23.5743 147.49 24.939V32H144.638V25.33C144.638 24.6247 144.431 24.0573 144.017 23.628C143.619 23.1987 143.082 22.984 142.407 22.984C141.733 22.984 141.181 23.2063 140.751 23.651C140.322 24.0803 140.107 24.64 140.107 25.33V32H137.232V20.661H139.877V21.696C140.276 21.282 140.759 20.96 141.326 20.73C141.909 20.5 142.545 20.385 143.235 20.385ZM154.166 20.385C155.838 20.385 157.187 20.96 158.214 22.11L156.742 23.881C156.374 23.5283 155.96 23.2523 155.5 23.053C155.056 22.8537 154.603 22.754 154.143 22.754C153.745 22.754 153.423 22.8307 153.177 22.984C152.932 23.1373 152.809 23.3673 152.809 23.674C152.809 23.9193 152.901 24.1187 153.085 24.272C153.285 24.4253 153.622 24.6017 154.097 24.801L155.201 25.238C156.29 25.6827 157.087 26.1657 157.593 26.687C158.115 27.193 158.375 27.8677 158.375 28.711C158.375 29.815 157.961 30.6813 157.133 31.31C156.305 31.9387 155.27 32.253 154.028 32.253C153.047 32.253 152.15 32.0613 151.337 31.678C150.525 31.2793 149.865 30.7427 149.359 30.068L150.854 28.32C151.36 28.826 151.866 29.217 152.372 29.493C152.894 29.7537 153.446 29.884 154.028 29.884C154.488 29.884 154.864 29.792 155.155 29.608C155.462 29.424 155.615 29.1633 155.615 28.826C155.615 28.55 155.516 28.3353 155.316 28.182C155.117 28.0287 154.78 27.8523 154.304 27.653L153.108 27.17C152.081 26.7407 151.314 26.273 150.808 25.767C150.302 25.2457 150.049 24.571 150.049 23.743C150.049 22.7003 150.433 21.88 151.199 21.282C151.966 20.684 152.955 20.385 154.166 20.385Z" fill="white"/>
<path d="M25.319 0C23.5248 0 21.9299 0.588957 20.335 1.37423C18.9394 2.35583 17.7433 3.73006 17.1452 5.30061C15.7496 2.15951 12.5598 0 8.97132 0C4.18661 0 0.199363 3.73006 0 8.44172C0 8.63804 0 8.63804 0 8.83436C0 11.7791 1.5949 14.3313 3.78789 15.9018C4.98406 16.6871 6.57897 17.2761 8.17387 17.4724H1.99363C0.598088 19.0429 0 21.0061 0 23.1656C0 28.0736 3.98725 32 8.97132 32C13.9554 32 17.9426 28.0736 17.9426 23.1656C17.7433 20.2209 16.3477 17.6687 13.9554 15.9018C15.3509 15.1166 16.3477 13.7423 17.1452 12.3681C18.5407 15.3129 21.5312 17.6687 25.319 17.6687C26.5152 17.6687 27.512 17.4724 28.5088 17.0798V0.588957C27.3127 0.196319 26.3159 0 25.319 0Z" fill="white"/>
</svg>
