<svg width="320" height="260" viewBox="0 0 320 260" fill="none" xmlns="http://www.w3.org/2000/svg">
<g clip-path="url(#clip0)">
<path d="M270.67 5.43033e-05L221.765 28.2354L270.67 56.4706L319.575 28.2354L270.67 5.43033e-05Z" fill="#716E6A"/>
<path d="M319.493 28.2354L270.588 56.4707L270.588 112.941L319.493 84.706L319.493 28.2354Z" fill="white"/>
<path d="M270.67 56.4706L221.765 28.2354L221.765 84.7059L270.67 112.941L270.67 56.4706Z" fill="#80C4A8"/>
<path d="M227.14 137.059L178.235 165.294L227.14 193.529L276.045 165.294L227.14 137.059Z" fill="#716E6A"/>
<path d="M275.964 165.294L227.059 193.529L227.059 250L275.964 221.765L275.964 165.294Z" fill="white"/>
<path d="M227.14 193.529L178.235 165.294L178.235 221.765L227.14 250L227.14 193.529Z" fill="#80C4A8"/>
</g>
<defs>
<clipPath id="clip0">
<rect width="320" height="539.412" fill="white"/>
</clipPath>
</defs>
</svg>
